<svg xmlns="http://www.w3.org/2000/svg" viewBox="0 0 24 24" ><path d="m10.66 18.37-.93-9.73h-1.5l.92 9.73h1.51Zm5.14-9.73h-1.51l-.92 9.73h1.5l.93-9.73Z"/><path d="m15.53 5-.24-1.79a2.253 2.253 0 0 0-2.23-1.96h-2.13c-1.13 0-2.08.84-2.23 1.96L8.46 5H2v1.5h1.49l1.78 13.54C5.42 21.16 6.37 22 7.5 22h9c1.13 0 2.08-.84 2.23-1.96L20.51 6.5H22V5h-6.47Zm-5.34-1.6c.05-.37.37-.65.74-.65h2.13c.38 0 .69.28.74.65l.21 1.6H9.97l.21-1.6h.01Zm7.05 16.44c-.05.37-.37.65-.74.65h-9c-.38 0-.69-.28-.74-.65L5 6.49h14l-1.76 13.35Z"/></svg>